<?xml version="1.0" encoding="UTF-8" standalone="no"?>
<!-- Created with Inkscape (http://www.inkscape.org/) -->

<svg
   width="150px"
   height="150px"
   viewBox="0 0 185.34061 170.62704"
   version="1.1"
   id="svg1"
   xml:space="preserve"
   inkscape:version="1.4.2 (f4327f4, 2025-05-13)"
   sodipodi:docname="mkprompt.svg"
   xmlns:inkscape="http://www.inkscape.org/namespaces/inkscape"
   xmlns:sodipodi="http://sodipodi.sourceforge.net/DTD/sodipodi-0.dtd"
   xmlns="http://www.w3.org/2000/svg"
   xmlns:svg="http://www.w3.org/2000/svg"><sodipodi:namedview
     id="namedview1"
     pagecolor="#ffffff"
     bordercolor="#000000"
     borderopacity="0.25"
     inkscape:showpageshadow="2"
     inkscape:pageopacity="0.0"
     inkscape:pagecheckerboard="0"
     inkscape:deskcolor="#d1d1d1"
     inkscape:document-units="mm"
     inkscape:zoom="0.68862935"
     inkscape:cx="337.6272"
     inkscape:cy="289.70592"
     inkscape:window-width="1920"
     inkscape:window-height="991"
     inkscape:window-x="-9"
     inkscape:window-y="-9"
     inkscape:window-maximized="1"
     inkscape:current-layer="layer1" /><defs
     id="defs1" /><g
     inkscape:label="Layer 1"
     inkscape:groupmode="layer"
     id="layer1"
     transform="translate(-15.975855,-72.183293)"><path
       style="fill:#000000"
       d="m 71.009185,228.7874 v -14.02291 h 2.51354 2.51354 v 1.37314 1.37315 l 0.8599,-0.88409 c 1.33986,-1.37755 3.1888,-2.12115 5.28174,-2.1242 5.92197,-0.009 9.96332,5.24915 9.02753,11.74476 -0.51731,3.59083 -2.19426,5.91124 -5.33761,7.38575 -1.46589,0.68763 -2.07282,0.82389 -3.61385,0.81136 -2.26704,-0.0184 -3.50158,-0.40519 -5.03874,-1.57853 l -1.17897,-0.89993 v 5.42221 5.42221 h -2.51354 -2.51354 z m 12.3873,0.90047 c 2.01364,-1.00344 2.79284,-2.43143 2.78717,-5.10792 -0.007,-3.45528 -1.55828,-5.47119 -4.43801,-5.7684 -3.55142,-0.36654 -5.71794,1.8549 -5.70357,5.84815 0.01,2.67103 1.19709,4.56431 3.34254,5.32927 1.50631,0.53707 2.47591,0.4643 4.01187,-0.3011 z m 81.539775,-0.90047 v -14.02291 h 2.67247 2.67248 l -0.0947,1.19062 c -0.0521,0.65485 -0.0268,1.19063 0.0562,1.19063 0.083,0 0.48477,-0.34855 0.89291,-0.77455 0.40813,-0.426 1.34794,-1.03519 2.08846,-1.35375 1.70544,-0.73366 4.67503,-0.6378 6.58637,0.21263 1.84111,0.81918 3.7136,2.70272 4.60461,4.6318 0.69965,1.51478 0.76187,1.89798 0.76187,4.6922 0,2.78767 -0.0613,3.16749 -0.73135,4.53136 -0.90554,1.84322 -2.90899,3.75367 -4.88517,4.65839 -1.15198,0.52739 -1.93028,0.68799 -3.36499,0.69433 -2.2586,0.01 -3.48529,-0.37562 -5.0889,-1.59968 l -1.2148,-0.92728 0.15701,5.44956 0.15701,5.44957 h -2.63472 -2.63471 z m 12.31407,1.09018 c 1.984,-0.90121 3.02712,-2.74291 3.03028,-5.35017 0.007,-5.53814 -6.2449,-7.91505 -9.31788,-3.54274 -1.49674,2.1296 -1.20469,6.21742 0.56535,7.91322 1.49281,1.4302 3.84418,1.83277 5.72225,0.97969 z m -62.27922,4.3382 c -2.95772,-0.66649 -5.29832,-2.57899 -6.62872,-5.4163 -0.60739,-1.29537 -0.68672,-1.79279 -0.67709,-4.24541 0.009,-2.41912 0.0997,-2.97045 0.69821,-4.26642 1.76253,-3.8166 4.99129,-5.79127 9.45879,-5.78488 5.02798,0.007 8.46261,2.57894 9.71349,7.27318 1.04223,3.91122 -0.43069,8.51092 -3.4322,10.71825 -2.36284,1.73766 -6.01003,2.4252 -9.13248,1.72158 z m 5.62388,-4.84223 c 1.55043,-1.07646 2.14348,-2.42175 2.1246,-4.81948 -0.0228,-2.89486 -0.9506,-4.51813 -3.09441,-5.41387 -1.85938,-0.77689 -4.0424,-0.33711 -5.56477,1.12108 -2.01681,1.93178 -1.85054,6.94189 0.29476,8.88201 1.539,1.3918 4.41404,1.49789 6.23982,0.23026 z m 74.76045,4.88502 c -1.90698,-0.42373 -2.97853,-1.21504 -3.73888,-2.76103 -0.57657,-1.17232 -0.62334,-1.62504 -0.71048,-6.87732 l -0.0933,-5.6224 h -1.82577 -1.82577 v -2.11667 -2.11666 h 1.85209 1.85208 v -2.64584 -2.64583 h 2.64583 2.64584 v 2.63625 2.63626 l 2.53859,0.0757 2.53859,0.0757 0.0411,2.05064 0.0411,2.05063 -2.57969,-1.1e-4 -2.57968,-1.2e-4 v 4.83592 c 0,5.39021 0.0953,5.74046 1.70728,6.27245 0.65611,0.21654 1.19392,0.22263 1.9174,0.0217 0.55304,-0.15357 1.09482,-0.27989 1.20396,-0.2807 0.10914,-8.1e-4 0.19844,0.88691 0.19844,1.9727 v 1.97418 l -0.99219,0.25769 c -1.80815,0.46961 -3.35593,0.53579 -4.83654,0.20679 z M 15.975855,224.42178 v -9.65729 h 2.54018 2.54019 l -0.0947,1.19062 c -0.0521,0.65485 -0.0268,1.19063 0.0562,1.19063 0.083,0 0.48844,-0.35238 0.90107,-0.78307 1.18458,-1.23644 2.79123,-1.86277 4.77834,-1.86277 2.06724,0 3.35696,0.48675 4.66384,1.76014 l 0.96527,0.94054 1.31926,-1.04281 c 1.64081,-1.29699 3.19919,-1.74936 5.5657,-1.61564 2.56112,0.14471 4.10675,1.11134 5.20335,3.25412 l 0.7978,1.55892 0.0815,7.36195 0.0815,7.36195 h -2.51236 -2.51236 l -0.0827,-6.68073 c -0.0916,-7.40558 -0.17792,-7.79456 -1.85939,-8.38072 -2.02775,-0.70688 -3.86712,0.0358 -4.71513,1.9039 -0.45258,0.99699 -0.5086,1.77536 -0.51378,7.13828 l -0.006,6.01927 -2.4474,-3.8e-4 -2.44739,-3.8e-4 v -6.41577 c 0,-5.98722 -0.0362,-6.47762 -0.54168,-7.3418 -1.04226,-1.78182 -3.90654,-2.07478 -5.42631,-0.55501 -1.12741,1.1274 -1.30497,2.29054 -1.30658,8.55865 l -0.001,5.75469 h -2.51354 -2.51354 z m 33.60208,-4.23333 v -13.89063 h 2.52092 2.52092 l -0.0735,8.20223 c -0.0404,4.51122 -0.014,8.19782 0.0588,8.19246 0.0728,-0.005 1.68011,-1.7829 3.57188,-3.95005 l 3.43958,-3.94029 3.10886,-0.0188 c 1.70986,-0.0104 3.10885,0.0627 3.10885,0.16238 0,0.0997 -0.98227,1.20122 -2.18281,2.44789 -3.25631,3.38139 -5.49011,5.81896 -5.49011,5.99093 0,0.084 0.69124,1.00665 1.5361,2.05024 2.32876,2.87656 6.4014,8.26198 6.4014,8.46483 0,0.0987 -1.34025,0.17947 -2.97835,0.17947 h -2.97834 l -2.37947,-3.10362 c -1.3087,-1.70698 -2.97477,-3.92355 -3.70238,-4.92569 l -1.32292,-1.82207 -0.072,4.92569 -0.072,4.92569 h -2.5077 -2.5077 z m 44.97916,4.23333 v -9.65729 h 2.38125 2.38125 v 1.4949 1.49491 l 0.764265,-1.05503 c 1.02144,-1.41007 2.73339,-2.19937 4.77032,-2.19937 h 1.57161 l 0.0849,2.35744 0.0849,2.35745 -2.1636,0.0899 c -2.54144,0.10566 -3.33107,0.54097 -4.25254,2.34432 -0.562225,1.10031 -0.595305,1.47803 -0.595305,6.79753 v 5.63248 h -2.51354 -2.51355 z m 36.512495,0 v -9.65729 h 2.51354 2.51354 v 1.21311 1.21311 l 1.17497,-1.03425 c 1.3689,-1.20495 2.66416,-1.65656 4.75121,-1.65656 1.84348,0 3.16613,0.52688 4.44093,1.76904 l 0.97439,0.94945 1.04913,-0.83093 c 1.7454,-1.38238 3.12806,-1.87526 5.27881,-1.88174 3.06217,-0.009 5.05044,1.17163 6.22702,3.69835 0.51192,1.09934 0.56205,1.75357 0.65391,8.53281 l 0.0995,7.34219 h -2.53535 -2.53534 v -6.37616 c 0,-7.20968 -0.12158,-7.79666 -1.77769,-8.58254 -1.10791,-0.52574 -2.89769,-0.41386 -3.90153,0.24389 -1.46041,0.95689 -1.58963,1.60527 -1.68028,8.43096 l -0.0835,6.28385 h -2.34328 -2.34327 l -0.0868,-6.41615 c -0.0748,-5.52717 -0.15159,-6.53466 -0.55431,-7.27156 -1.24034,-2.26952 -4.75019,-2.14169 -6.14709,0.22388 -0.48178,0.81588 -0.53664,1.4588 -0.61262,7.17998 l -0.0834,6.28385 h -2.49624 -2.49623 z M 63.733145,190.30141 c -7.7072,-1.69227 -13.50513,-8.08761 -14.67622,-16.18843 -0.16415,-1.13546 -0.26422,-17.11835 -0.2675,-42.72373 -0.005,-34.758227 0.053,-41.243033 0.38232,-43.127073 1.30695,-7.477933 6.53077,-13.130524 14.30636,-15.480621 1.48584,-0.449082 4.00288,-0.482114 43.117525,-0.565849 43.1236,-0.09232 45.10845,-0.05117 48.1588,0.998303 5.16058,1.7755 9.2319,5.366506 11.54713,10.184864 1.90689,3.968521 1.8,1.115593 1.8051,48.177986 0.005,41.60785 -0.005,42.39417 -0.52878,44.44999 -1.71253,6.71962 -6.19796,11.65009 -12.5635,13.81004 l -2.11667,0.71822 -43.78853,0.0474 c -35.383705,0.0383 -44.093245,-0.0195 -45.376035,-0.30113 z m 32.96879,-12.18171 5.007765,-4.89479 h 17.04875 c 12.68284,0 17.23826,-0.0814 17.7888,-0.31783 1.47596,-0.63388 2.26865,-1.37541 2.88475,-2.69856 l 0.62825,-1.34924 0.003,-15.29023 c 0.002,-14.51204 -0.023,-15.34018 -0.50083,-16.27187 -0.5834,-1.13761 -1.3971,-1.93432 -2.5923,-2.5382 -0.7638,-0.38591 -3.55509,-0.42782 -28.49163,-0.42782 -18.889015,0 -27.880775,0.0891 -28.389695,0.28141 -1.05892,0.40009 -2.18643,1.52947 -2.75675,2.7613 -0.45869,0.99071 -0.49037,2.02668 -0.49581,16.21422 -0.006,16.5418 -0.0341,16.21664 1.52958,17.88424 1.33286,1.4214 2.46555,1.74033 6.20367,1.74677 l 3.37344,0.006 v 3.98614 c 0,5.05903 0.32314,5.77831 2.60343,5.79502 1.136,0.008 1.20152,-0.0437 6.15599,-4.88637 z m 12.711575,-9.79674 c -0.91671,-0.77136 -1.26384,-1.94193 -0.83674,-2.8216 0.16312,-0.33595 2.70113,-2.9586 5.64001,-5.8281 l 5.34344,-5.21728 -5.47668,-5.36606 c -5.7801,-5.66334 -5.97267,-5.93677 -5.41548,-7.6892 0.12865,-0.4046 0.57227,-0.91062 0.98583,-1.12448 1.63641,-0.84622 1.73296,-0.78092 8.47569,5.73126 7.4556,7.20069 7.64834,7.41522 7.64834,8.51277 0,0.73755 -0.78802,1.62194 -6.81869,7.65261 -6.42561,6.42561 -6.87439,6.81869 -7.7849,6.81869 -0.64738,0 -1.22843,-0.22063 -1.76082,-0.66861 z m -14.411315,-8.84503 -3.9574,-3.9574 0.14927,-1.11286 c 0.13436,-1.00173 0.50128,-1.46706 3.67438,-4.65978 3.65622,-3.67884 4.477,-4.30423 5.648985,-4.30423 1.01697,0 2.24175,1.32318 2.24175,2.42185 0,0.76032 -0.36428,1.23538 -2.778125,3.62307 -1.52797,1.51141 -2.77812,2.81691 -2.77812,2.90112 0,0.0842 1.25015,1.42175 2.77812,2.97232 2.904735,2.94771 3.183945,3.49406 2.470325,4.83393 -0.48863,0.91742 -1.06244,1.22193 -2.3196,1.23096 -1.161155,0.008 -1.209445,-0.0288 -5.129585,-3.94898 z m 35.141355,-30.991 c 2.5248,-0.67999 4.3658,-3.00732 4.36546,-5.51866 l -1.6e-4,-1.20482 1.27777,0.0886 c 1.79522,0.12451 3.13866,-0.48967 3.62687,-1.65811 0.45912,-1.09884 0.53203,-6.10105 0.11101,-7.61699 -0.3932,-1.41579 -1.0868,-1.79374 -3.29179,-1.79374 h -1.86289 l -0.3212,-1.35219 c -1.05554,-4.44357 -4.02416,-7.76286 -8.43494,-9.431327 -1.74316,-0.65939 -2.09705,-0.69322 -8.36857,-0.80009 l -6.54843,-0.11159 v -3.47896 l 1e-5,-3.47896 0.95402,-0.761211 c 1.7288,-1.379414 2.43894,-4.08431 1.59106,-6.060307 -0.44522,-1.037587 -1.88284,-2.438682 -2.89305,-2.819545 -1.82495,-0.688033 -4.31037,-0.09478 -5.65869,1.350697 -0.80598,0.864063 -1.40169,2.392159 -1.40169,3.595598 0,1.350915 0.99245,3.248435 2.04033,3.901018 l 0.84971,0.529167 0.0102,3.638023 0.0102,3.63802 -5.75469,0.004 c -4.163535,0.003 -6.217385,0.11299 -7.428155,0.39843 -4.069,0.959257 -7.31759,3.519307 -9.02813,7.114647 -0.56006,1.17716 -1.09538,2.58678 -1.1896,3.13249 l -0.17131,0.99218 h -1.86045 c -1.70351,0 -1.92569,0.0652 -2.63384,0.7734 l -0.7734,0.7734 v 3.87716 3.87716 l 0.75073,0.75074 c 0.78307,0.78307 2.58097,1.24411 3.88183,0.99544 0.63361,-0.12113 0.65911,-0.0731 0.65911,1.24057 0,2.62629 1.68265,4.88365 4.06352,5.4514 1.37094,0.32693 42.207415,0.29346 43.429175,-0.0356 z m -35.091405,-9.50319 c -2.78457,-1.47141 -3.60268,-4.90034 -1.77993,-7.46016 1.3952,-1.95937 4.97156,-2.41746 6.970455,-0.89283 1.83314,1.39821 2.43346,3.77476 1.48247,5.86882 -1.20456,2.65244 -4.225965,3.77722 -6.672995,2.48417 z m 23.054755,0.12546 c -1.97062,-0.88908 -2.9879,-2.41761 -2.9879,-4.4895 0,-2.84685 2.09032,-4.89479 4.99611,-4.89479 3.76039,0 5.97372,3.63644 4.30784,7.07767 -0.32282,0.66686 -0.98497,1.43975 -1.55877,1.81948 -1.28335,0.84928 -3.46047,1.07221 -4.75728,0.48714 z"
       id="path1" /></g></svg>
